<?xml version="1.0" encoding="UTF-8" standalone="no"?>
<!-- Created with Inkscape (http://www.inkscape.org/) -->

<svg
   width="500mm"
   height="500mm"
   viewBox="0 0 500 500"
   version="1.1"
   id="svg5"
   sodipodi:docname="other-drawing.svg"
   inkscape:version="1.2.2 (b0a8486541, 2022-12-01)"
   xmlns:inkscape="http://www.inkscape.org/namespaces/inkscape"
   xmlns:sodipodi="http://sodipodi.sourceforge.net/DTD/sodipodi-0.dtd"
   xmlns="http://www.w3.org/2000/svg"
   xmlns:svg="http://www.w3.org/2000/svg">
  <sodipodi:namedview
     id="namedview7"
     pagecolor="#ffffff"
     bordercolor="#000000"
     borderopacity="0.25"
     inkscape:showpageshadow="2"
     inkscape:pageopacity="0.0"
     inkscape:pagecheckerboard="0"
     inkscape:deskcolor="#d1d1d1"
     inkscape:document-units="mm"
     showgrid="false"
     inkscape:zoom="0.36965764"
     inkscape:cx="531.57294"
     inkscape:cy="953.58504"
     inkscape:window-width="1920"
     inkscape:window-height="1040"
     inkscape:window-x="0"
     inkscape:window-y="20"
     inkscape:window-maximized="1"
     inkscape:current-layer="layer1" />
  <defs
     id="defs2" />
  <g
     inkscape:label="Layer 1"
     inkscape:groupmode="layer"
     id="layer1">
    <rect
       style="fill:#1e1e2e;fill-opacity:1;stroke-width:0.440592"
       id="rect1050"
       width="500"
       height="500"
       x="0"
       y="-1.4210855e-14"
       ry="23.639017" />
    <path
       style="fill:#ffffff;fill-opacity:1;stroke-width:0.264583"
       id="path1536"
       d="m 103.49147,122.71394 c 0.0457,3.49303 0.0404,6.98652 0.0477,10.47978 0.0374,4.71198 -0.0178,9.42291 -0.0995,14.13405 -0.0918,4.39075 -0.11112,8.78245 -0.1283,13.17397 -0.006,3.62099 -0.0242,7.24195 -0.0314,10.86294 0.0222,2.01631 -0.0552,4.03414 0.002,6.04993 0.21585,3.10889 1.25804,2.65849 4.58409,4.50504 0.21546,-0.0182 0.43545,-0.007 0.64638,-0.0546 0.58157,-0.13122 1.63331,-0.58057 2.12994,-0.78656 1.52383,-0.63204 3.04,-1.28402 4.55962,-1.92614 4.80494,-2.13977 10.13285,-2.42803 15.30834,-2.78605 7.88811,-0.49211 15.7862,0.0987 23.65659,0.61611 9.28985,0.69621 18.55903,1.64534 27.79298,2.87512 9.59919,1.32838 19.13159,3.08565 28.72997,4.41659 7.23335,0.88683 14.47828,1.68788 21.72922,2.41799 2.73441,0.58015 6.07763,0.0318 8.7363,0.87306 -5.56546,-3.08615 -2.1476,-2.30749 -3.12291,-0.67199 -0.93239,1.15576 -0.80742,2.71655 -0.85265,4.11639 0.10037,4.17552 0.7073,8.31629 1.16461,12.46266 -0.0731,1.27465 0.8234,3.47467 0.0203,4.58828 -1.54701,0.8041 -3.29279,0.35375 -4.87314,-0.10003 -4.04564,-1.68108 -8.38551,-2.18018 -12.70489,-2.6213 -7.6233,-0.65312 -15.26941,-0.89318 -22.91603,-1.04622 -8.72279,-0.19439 -17.446,-0.0818 -26.16835,0.0548 -11.24162,0.11132 -22.48016,0.3592 -33.71896,0.62407 -5.89562,0.13054 -11.79127,0.26562 -17.68776,0.351 -0.71259,0.11127 -1.47554,-0.0979 -2.18409,0.0399 -0.68465,0.98808 -0.77629,2.51842 -0.90729,3.68001 -0.13323,7.73527 -0.0466,15.47628 -0.052,23.21365 0.0159,6.50142 -0.014,13.00275 -0.0419,19.50408 0.0146,2.37657 -0.0579,4.75381 -0.0247,7.13024 0.0484,2.16584 2.6172,3.27672 4.61979,3.47314 0.53321,0.0209 1.06685,-0.0139 1.60005,-0.0266 1.55436,0.16321 3.10943,0.24234 4.67703,0.24597 6.88085,0.0321 13.72229,0.97504 20.53765,1.83492 8.03802,1.13735 16.06363,2.33531 24.12368,3.30821 7.73699,0.91416 15.46493,1.89663 23.2164,2.68224 5.88592,0.5189 11.77658,0.79864 17.64838,1.47028 5.17792,0.63456 10.35706,1.26381 15.55704,1.6886 1.21655,-0.0254 3.00482,0.53356 3.85763,-0.63066 0.31746,-1.143 0.19838,-2.37119 0.31388,-3.55356 0.22774,-1.86238 0.37391,-3.7319 0.44044,-5.60657 0.0505,-1.6026 0.0833,-3.20547 0.0248,-4.80808 -0.0649,-2.74828 -0.4818,-2.00211 -3.86504,-4.00131 -1.7146,-1.11751 -3.63943,-1.62383 -5.59838,-2.15448 -8.5191,-1.91842 -17.11497,-3.49166 -25.73503,-4.88131 -6.12278,-0.96775 -12.29252,-1.56565 -18.48338,-1.82706 -4.35686,-0.1567 -8.71686,-0.11743 -13.07546,-0.10146 -4.97524,0.007 -9.95048,0.0179 -14.92572,0.0182 -2.79462,-0.064 -5.66265,0.14662 -8.40567,-0.51151 -0.12856,-0.0769 -0.5166,-0.3033 -0.38568,-0.23055 3.82453,2.12528 3.3311,2.64172 2.60474,0.42486 -0.32768,-0.90074 -0.4839,-1.8307 -0.45719,-2.78576 -0.006,-0.54642 0.0901,-0.96312 0.45008,-1.36743 0.47454,-0.41892 1.12138,-0.42503 1.72107,-0.46358 1.4597,-0.0246 2.91467,-0.0412 4.37132,-0.14839 4.32881,-0.30092 8.66887,0.25944 12.9753,0.6532 4.61,0.38394 9.22013,0.78564 13.83733,1.07369 4.33671,0.26589 8.67393,0.52182 13.00984,0.80102 4.09996,0.28416 8.20939,0.36956 12.31394,0.55921 4.80395,0.27676 9.61292,0.44524 14.41913,0.67341 4.65791,0.22152 9.31951,0.35189 13.98163,0.44125 3.02094,0.0718 6.03786,0.30573 9.04289,0.61808 2.73636,0.10587 5.94195,2.2387 0.27763,-0.96008 0.41239,0.43795 0.42607,1.11104 0.48058,1.68297 0.056,0.83567 0.05,1.67404 0.0523,2.51114 -0.002,1.66039 0.007,3.32061 0.0497,4.98045 0.0906,2.91995 0.15098,5.84067 0.17893,8.76186 0.0121,1.67673 0.0108,3.35351 0.0104,5.03026 -0.002,1.0873 -0.003,2.17458 -0.008,3.26186 0.0118,0.56885 -0.005,1.13294 -0.077,1.69712 -0.22747,1.99472 2.78087,2.68623 4.53745,2.78725 1.16619,0.0148 2.32291,-0.0373 3.48423,0.0851 2.46707,0.53652 4.94363,1.00134 7.44849,1.3213 1.96228,0.19257 3.93078,0.28776 5.89535,0.4617 1.50362,0.14266 3.01111,0.23442 4.52077,0.27567 1.13927,0.0269 2.27894,0.0188 3.41839,0.0148 1.1915,-0.0821 2.42496,0.15324 3.5986,-0.10766 0.83156,-0.60556 1.10447,-1.57316 1.20435,-2.55 -0.0209,-1.06516 -0.26958,-2.11733 -0.51342,-3.15093 -0.2527,-0.91813 -0.47048,-1.84446 -0.61404,-2.78601 -0.065,-0.4386 -0.0825,-0.88175 -0.087,-1.32442 0,-0.32703 0.003,-0.65403 0.005,-0.98102 0,-0.52528 -0.003,-1.05056 -0.004,-1.57584 -0.003,-0.94749 -0.003,-1.89499 -0.007,-2.84249 -0.1156,-2.23793 -0.17857,-4.47726 -0.22027,-6.71767 -0.085,-3.60681 0.11444,-7.21167 0.26049,-10.81429 0.0708,-2.13967 0.16203,-4.27744 0.28511,-6.41464 0.25612,-2.7232 0.37626,-5.45336 0.46643,-8.18641 0.11034,-4.21441 0.0895,-8.43094 0.10454,-12.64644 0.01,-4.12863 0.008,-8.2573 0.003,-12.38595 0.0103,-5.32267 -0.0319,-10.64522 -0.0461,-15.96785 0,-6.63184 0.003,-13.26366 0.0188,-19.89549 0.13224,-5.14705 -0.1298,-10.28473 -0.47267,-15.41795 -0.39794,-5.1563 -0.48525,-10.32802 -0.72102,-15.4924 -0.23622,-2.54379 -0.0175,-5.22939 -0.8514,-7.68222 -1.16798,-1.99815 -3.60744,-2.90725 -5.83166,-2.9103 -1.71921,0.2292 -3.24326,-0.33966 -4.8581,-0.85486 -5.29599,-1.44104 -10.74216,-2.17732 -16.18193,-2.81777 -8.88677,-0.93733 -17.82735,-1.11656 -26.75494,-0.99185 -11.11953,0.44017 -22.17773,1.84705 -33.18688,3.4124 -9.41297,1.30445 -18.77769,2.9211 -28.17886,4.30501 -5.78333,0.85044 -11.58808,1.52239 -17.40901,2.05165 -2.42623,0.0827 -4.85879,0.52961 -7.29197,0.48143 -0.68641,-0.0136 -1.95293,-0.20843 -2.54734,-0.2877 -3.82371,-0.47735 -7.65206,-0.90495 -11.46589,-1.45706 -2.27672,-0.3357 -4.52794,-0.82637 -6.78527,-1.27628 -1.93862,-0.37454 -3.81683,-0.97359 -5.67989,-1.61532 0,0 3.11443,2.42167 3.11443,2.42167 v 0 c 1.86214,0.61712 3.74225,1.17809 5.67229,1.54575 2.26301,0.45212 4.51499,0.98163 6.80713,1.26492 3.81449,0.52269 7.6444,0.91575 11.45787,1.4465 3.32625,0.43046 6.48298,-0.0127 9.81638,-0.31729 5.80686,-0.56286 11.61614,-1.14633 17.37417,-2.10286 9.35919,-1.47167 18.70532,-3.02983 28.08528,-4.36642 11.00796,-1.56072 22.06256,-3.00523 33.18653,-3.35511 8.94683,-0.10356 17.90734,0.0963 26.80765,1.09162 5.46592,0.66986 10.94674,1.42469 16.24922,2.95962 1.6484,0.52215 3.22651,0.98713 4.9722,0.79834 0.35187,0.0129 0.65244,0.0103 0.99923,0.075 0.13298,0.0248 0.50501,0.18048 0.39145,0.10695 -5.75241,-3.72503 -3.26406,-2.1887 -2.35254,-1.27353 1.03338,2.36132 0.70411,5.11937 1.0069,7.61856 0.26871,5.1693 0.34996,10.34785 0.74276,15.51065 0.33393,5.12872 0.59005,10.26112 0.49909,15.4032 0.0164,6.63827 0.0183,13.27655 0.0191,19.91483 -0.014,5.30762 -0.0562,10.61517 -0.0425,15.92282 -0.003,4.12946 0.003,8.25892 0.004,12.38838 0,4.20744 -0.0122,8.41544 -0.12637,12.6216 -0.0907,2.72276 -0.23489,5.44056 -0.51633,8.15088 -0.11491,2.14793 -0.20021,4.29546 -0.23889,6.44643 -0.12383,3.60826 -0.33378,7.21656 -0.27763,10.82816 0.0225,2.22865 0.0594,4.45708 0.16568,6.68357 -0.004,0.94503 -0.005,1.89005 -0.007,2.83508 -0.003,0.52266 -0.003,1.04533 -0.007,1.56799 0,0.32856 -0.003,0.65714 -0.004,0.9857 0,0.46078 0.0111,0.92205 0.0705,1.37967 0.13962,0.95449 0.34829,1.89654 0.61256,2.8244 0.24633,0.99764 0.47286,2.01171 0.56457,3.03565 -0.0444,0.77142 -0.19754,1.70037 -0.93983,2.10087 -1.17073,0.1515 -2.36291,0.0145 -3.53941,0.0642 -1.13948,-0.003 -2.27912,-0.003 -3.41834,-0.0292 -1.49726,-0.0468 -2.99245,-0.13825 -4.48411,-0.2775 -1.95883,-0.1724 -3.92347,-0.25527 -5.87824,-0.46887 -2.5114,-0.32914 -4.98511,-0.83936 -7.47029,-1.31873 -1.17108,-0.0894 -2.34047,-0.0444 -3.5124,-0.1084 -0.23604,-0.032 -0.90093,-0.26588 -0.70172,-0.13528 1.00802,0.66087 2.05655,1.25777 3.08481,1.88663 -0.21158,-0.0357 -0.22632,-0.098 -0.20122,-0.3181 0.0751,-0.5819 0.12317,-1.16012 0.0884,-1.74811 -0.004,-1.08987 -0.003,-2.17971 -0.006,-3.26959 -0.003,-1.68454 -0.017,-3.36904 -0.0458,-5.05338 -0.045,-2.92253 -0.1053,-5.84466 -0.18129,-8.76656 -0.0254,-1.64905 -0.008,-3.29741 -2.6e-4,-4.94653 0.001,-0.84522 0.007,-1.69096 -0.0285,-2.53563 -0.0465,-0.65946 -0.10614,-1.3433 -0.35381,-1.95998 -3.37325,-2.04077 -3.6709,-2.57449 -7.11134,-2.87425 -3.00245,-0.28057 -6.01275,-0.5174 -9.02892,-0.56827 -4.64711,-0.066 -9.29371,-0.18501 -13.93558,-0.42244 -4.81358,-0.23229 -9.63036,-0.39643 -14.44099,-0.68892 -4.1007,-0.1937 -8.20638,-0.27656 -12.30276,-0.55926 -4.33857,-0.27678 -8.67774,-0.54236 -13.01708,-0.80627 -4.59903,-0.30085 -9.19413,-0.66939 -13.78713,-1.04969 -4.35332,-0.39896 -8.73624,-0.97667 -13.11333,-0.67897 -1.47052,0.0836 -2.9403,0.0706 -4.41118,0.12955 -0.69919,0.0736 -1.39066,0.17976 -1.89783,0.71552 -0.40545,0.48193 -0.58162,0.96535 -0.57189,1.60655 -0.0467,0.99566 0.0668,1.96905 0.39604,2.91654 0.85363,2.44872 0.20893,2.59115 4.52661,3.88362 2.75204,0.503 5.57325,0.34313 8.35576,0.37306 4.97265,-0.007 9.94529,-0.0106 14.91793,-0.0242 4.3583,0.003 8.718,-0.013 13.07473,0.1215 6.15023,0.25649 12.28314,0.83064 18.36536,1.79477 8.64749,1.3869 17.28452,2.91859 25.7984,4.98503 1.98359,0.58767 3.90861,1.19707 5.6657,2.30749 -1.05484,-0.63427 -2.11281,-1.26338 -3.16453,-1.90282 -0.0612,-0.0372 0.14414,0.0427 0.1923,0.0957 0.3287,0.36152 0.0559,1.11992 0.19675,1.53515 0.0826,1.59591 0.053,3.19313 0.01,4.79017 -0.0693,1.86513 -0.19241,3.72784 -0.43357,5.57964 -0.12633,1.1168 -0.11392,2.23842 -0.24462,3.3466 -0.72918,0.91771 -2.63074,0.21585 -3.56596,0.35079 -5.16294,-0.38793 -10.3057,-0.98851 -15.44359,-1.62219 -5.86751,-0.6895 -11.75153,-0.97456 -17.63811,-1.45537 -7.75905,-0.76784 -15.48858,-1.77895 -23.23014,-2.7015 -8.03691,-0.95465 -16.03919,-2.14047 -24.05435,-3.25959 -6.88558,-0.8725 -13.79052,-1.84438 -20.74142,-1.93189 -1.58958,-0.0368 -3.163,-0.1824 -4.74571,-0.27803 -0.51809,0.0122 -1.04182,0.05 -1.55563,-0.0363 -1.28183,-0.32495 -3.28878,-1.80161 2.56269,1.67704 0.30543,0.18158 -1.02362,-0.7722 -0.47448,-0.97 -0.0894,-2.38689 -0.0161,-4.77836 -0.0671,-7.16611 -0.0425,-6.5252 -0.0953,-13.05036 -0.0988,-19.57574 -0.0237,-7.69034 -0.10932,-15.38902 0.22929,-23.07353 0.11605,-1.03455 0.32665,-2.30003 0.68657,-3.18531 0.70379,0.0102 1.40743,-0.0454 2.11084,-0.0554 5.80829,-0.19453 11.61691,-0.37964 17.42624,-0.54043 11.24539,-0.29089 22.49206,-0.43928 33.73981,-0.60438 8.74968,-0.11455 17.49965,-0.1374 26.24917,0.0196 7.64445,0.15196 15.29165,0.40998 22.91053,1.08308 4.36467,0.49946 8.70445,1.11325 12.80508,2.77194 1.71347,0.43396 3.63636,0.83629 5.18068,-0.2781 0.93231,-1.39526 0.0458,-3.32369 0.0462,-4.87336 -0.49624,-4.1254 -1.13161,-8.24994 -1.19508,-12.41153 0.0581,-1.33051 -0.0445,-2.80692 0.8417,-3.89961 1.29999,-2.20751 -1.1237,-2.68176 -3.46383,-3.73065 -2.82996,-0.60184 -5.80631,-0.25444 -8.65748,-0.73578 -7.22182,-0.69106 -14.43557,-1.47857 -21.63568,-2.36713 -9.58336,-1.33318 -19.10769,-3.04844 -28.69093,-4.3846 -9.2543,-1.2227 -18.54046,-2.21143 -27.85156,-2.88802 -7.90101,-0.51352 -15.82974,-1.11087 -23.74829,-0.62015 -5.22608,0.36874 -10.60417,0.67826 -15.45553,2.83719 -1.62456,0.67922 -1.6114,0.67625 -3.20569,1.33314 -1.07339,0.44228 -2.2775,1.09327 -3.45865,1.20394 -0.19044,0.0178 -0.38025,-0.0418 -0.57038,-0.0626 0.99096,0.60211 1.98094,1.20584 2.97289,1.80632 0.21992,0.13313 -0.45451,-0.28308 -0.58152,-0.50659 -0.26767,-0.47103 -0.24176,-1.06283 -0.32196,-1.57744 -0.0956,-2.01754 -0.0148,-4.04067 -0.0537,-6.05963 -0.008,-3.62798 -0.0257,-7.25597 -0.0128,-10.88397 0.0129,-4.39203 0.0438,-8.784 0.11404,-13.17554 0.0752,-4.71113 0.14494,-9.42191 0.11394,-14.13389 0.007,-3.47704 0.002,-6.95432 0.0477,-10.43113 0,0 -3.52776,-1.79748 -3.52776,-1.79748 z" />
    <path
       style="fill:#ffffff;fill-opacity:1;stroke-width:0.264583"
       id="path1538"
       d="m 211.10481,309.51746 c 3.2584,6.97865 6.49219,13.96683 9.54638,21.0375 4.14625,9.59898 7.57486,19.47344 10.85081,29.395 2.38142,7.10292 4.59024,14.26006 6.69307,21.44977 1.05151,3.54523 2.03301,7.11022 3.02072,10.6735 0.53999,2.08873 0.3376,3.0035 4.31395,2.71844 0.58646,-0.0421 0.51185,-1.05903 0.74704,-1.5979 0.3772,-0.86429 0.72649,-1.74048 1.08973,-2.61073 3.79308,-9.71179 7.00157,-19.63718 10.58081,-29.42894 3.42701,-9.45573 7.97351,-18.43122 12.66356,-27.30722 2.59289,-4.81761 5.06005,-9.71352 8.02164,-14.31962 0.80343,-1.06061 1.90415,-2.79254 3.52359,-2.44078 0.39076,0.0849 1.47375,0.61896 1.09646,0.48659 -0.66945,-0.23489 -1.31633,-0.52977 -1.97448,-0.79467 0.52901,0.65339 1.11424,1.26497 1.587,1.96014 4.1272,6.06864 6.22276,13.59175 8.1712,20.56876 2.98741,11.60565 3.72179,23.57308 3.86432,35.50385 0.0159,6.87036 -0.57372,13.71722 -1.65764,20.49611 -0.0905,1.39343 -0.28617,3.01247 3.87832,0.88492 0.91405,-0.46696 0.50313,-1.99027 0.7499,-2.98659 1.44847,-5.84753 2.90547,-11.6887 4.42085,-17.51954 2.78548,-10.24869 6.04742,-20.39805 10.45043,-30.07857 1.02121,-2.24526 2.16993,-4.43032 3.25488,-6.64549 0,0 -3.04255,-1.72828 -3.04255,-1.72828 v 0 c -1.07937,2.22559 -2.22078,4.42216 -3.23816,6.67678 -4.3788,9.70397 -7.65479,19.85844 -10.51483,30.09884 -4.35629,16.1416 0.42704,-1.6225 -3.43953,12.84814 -0.40436,1.51339 -0.80449,3.02797 -1.22433,4.53713 -0.27096,0.97404 -1.2115,1.96869 -0.84799,2.91208 0.4936,1.28101 4.07477,4.28189 3.00273,2.81877 0.81499,-6.86673 1.55723,-13.74714 1.42843,-20.67883 -0.17928,-11.94792 -0.87429,-23.93439 -3.79611,-35.57384 -2.14159,-7.83283 -4.44997,-16.08973 -9.44896,-22.64272 -0.1474,-0.096 -4.01801,-3.26821 -5.92659,-3.42043 -1.71074,-0.13642 -2.81641,1.59203 -3.66918,2.76397 -2.90169,4.65656 -5.33361,9.58112 -7.89898,14.42614 -4.64152,8.92242 -9.15127,17.93531 -12.58685,27.40605 -3.57647,9.77236 -6.77291,19.69037 -10.74899,29.31067 -0.38171,0.85294 -0.74684,1.7135 -1.14514,2.55881 -0.23941,0.50811 -1.04953,1.01452 -0.76738,1.50022 3.69874,6.36706 3.17658,2.37868 2.63795,0.98599 -1.05786,-3.5806 -2.07752,-7.17253 -3.1639,-10.74475 -2.14002,-7.20307 -4.3239,-14.39331 -6.76948,-21.49994 -3.31955,-9.9237 -6.74683,-19.81438 -10.87214,-29.43921 -2.99751,-7.01725 -6.20052,-13.94094 -9.27956,-20.92232 0,0 -3.581,-1.6378 -3.581,-1.6378 z" />
    <path
       style="fill:#ffffff;fill-opacity:1;stroke-width:0.264583"
       id="path1540"
       d="m 331.8365,398.89056 c 3.67839,-11.52159 7.01545,-23.14514 10.71528,-34.66044 3.08176,-9.13519 6.39733,-18.24365 10.96213,-26.76062 2.34424,-4.37388 3.03586,-5.2183 5.71024,-9.2433 0.95909,-1.23817 1.86653,-2.51814 2.87729,-3.71451 2.027,-2.39927 5.20176,-5.93436 8.45614,-6.69282 1.61155,-0.37557 3.8831,0.46831 1.83142,-0.21436 0.75464,0.99652 1.6564,1.89711 2.26393,2.98955 1.63428,2.93875 2.6338,6.76733 3.2897,9.9953 1.38697,6.82577 1.62703,13.72679 1.90267,20.66057 0.3746,11.95829 -0.89045,23.86118 -2.70706,35.65863 -0.15586,0.96089 -0.31279,1.92157 -0.4676,2.88261 -0.2903,1.80203 -1.44737,5.97554 3.74989,3.39122 1.03987,-0.51705 0.77251,-2.19067 1.18824,-3.27501 0.66292,-1.72916 1.36494,-3.44308 2.0474,-5.16459 4.27186,-10.60458 8.59259,-21.20633 13.83168,-31.37934 3.60955,-7.00882 4.76049,-8.72919 8.72323,-15.41222 3.73991,-5.86565 7.74444,-11.65707 12.79806,-16.48976 1.89928,-1.81623 4.59705,-4.06294 7.16761,-5.01825 0.9389,-0.3489 1.97599,-0.32961 2.96397,-0.49442 0.80288,0.4114 2.07764,0.39497 2.40861,1.2342 0.23281,0.59034 -1.36951,0.63206 -1.4233,1.26436 -0.15312,1.7997 0.76933,3.54592 0.86056,5.3498 0.13292,2.62747 0.01,5.26701 -0.19082,7.89022 -0.48363,6.33134 -1.70971,12.90132 -2.7378,19.14919 -2.24904,12.33625 -5.03995,24.56206 -7.12645,36.92787 0,0 3.2085,1.70063 3.2085,1.70063 v 0 c 1.95085,-12.41824 4.58136,-24.70795 6.85903,-37.06831 1.00769,-5.98712 2.3156,-13.05149 2.8802,-19.1245 0.13689,-1.47233 0.91996,-10.96672 -0.32885,-13.29307 -2.42758,-4.52223 -3.98785,-4.76138 -7.52131,-6.20352 -0.99499,0.20987 -2.04346,0.24535 -2.98495,0.62957 -2.55982,1.04471 -5.21182,3.32505 -7.10697,5.19028 -4.99388,4.91509 -8.9675,10.74351 -12.68453,16.64385 -3.96713,6.75151 -5.0555,8.39359 -8.69211,15.46014 -5.23526,10.17291 -9.60348,20.74857 -14.06745,31.2729 -0.72496,1.7009 -1.4591,3.39791 -2.17487,5.1027 -0.44292,1.05484 -1.59221,2.06957 -1.30112,3.17595 0.35452,1.34758 1.87351,2.07182 2.92291,2.98855 0.15655,0.13677 -0.19103,-0.38806 -0.18392,-0.59581 0.0241,-0.69758 0.18016,-1.3843 0.27562,-2.07574 0.13414,-0.97179 0.27548,-1.94257 0.4132,-2.91385 1.63639,-11.86905 2.85144,-23.82002 2.53672,-35.82139 -0.25752,-6.93345 -0.47517,-13.84403 -1.78096,-20.68205 -0.61733,-3.23268 -1.5711,-7.087 -3.11042,-10.06888 -0.57822,-1.12009 -1.43775,-2.07092 -2.15662,-3.10637 -1.94522,-1.11551 -3.73933,-2.55055 -5.83568,-3.34655 -1.76051,-0.66847 -4.19134,0.63391 -5.49489,1.51119 -3.51009,2.36226 -6.00982,5.94008 -8.52874,9.24248 -2.65464,4.05741 -3.34592,4.91506 -5.66745,9.31921 -4.51636,8.56776 -7.77486,17.71869 -10.86665,26.87338 -3.72007,11.46982 -7.07596,23.06175 -11.13197,34.41912 0,0 3.42826,1.89621 3.42826,1.89621 z" />
  </g>
</svg>
