<?xml version="1.0" encoding="UTF-8" standalone="no"?>
<!-- Created with Inkscape (http://www.inkscape.org/) -->

<svg
   width="500mm"
   height="500mm"
   viewBox="0 0 500 500"
   version="1.1"
   id="svg5"
   sodipodi:docname="other-drawing.svg"
   inkscape:version="1.2.2 (b0a8486541, 2022-12-01)"
   xmlns:inkscape="http://www.inkscape.org/namespaces/inkscape"
   xmlns:sodipodi="http://sodipodi.sourceforge.net/DTD/sodipodi-0.dtd"
   xmlns="http://www.w3.org/2000/svg"
   xmlns:svg="http://www.w3.org/2000/svg">
  <sodipodi:namedview
     id="namedview7"
     pagecolor="#ffffff"
     bordercolor="#000000"
     borderopacity="0.25"
     inkscape:showpageshadow="2"
     inkscape:pageopacity="0.0"
     inkscape:pagecheckerboard="0"
     inkscape:deskcolor="#d1d1d1"
     inkscape:document-units="mm"
     showgrid="false"
     inkscape:zoom="0.29999403"
     inkscape:cx="1041.6874"
     inkscape:cy="641.67945"
     inkscape:window-width="1920"
     inkscape:window-height="1060"
     inkscape:window-x="0"
     inkscape:window-y="20"
     inkscape:window-maximized="1"
     inkscape:current-layer="layer1" />
  <defs
     id="defs2" />
  <g
     inkscape:label="Layer 1"
     inkscape:groupmode="layer"
     id="layer1">
    <rect
       style="fill:#5fd093;fill-opacity:1;stroke-width:0.440592"
       id="rect1050"
       width="500"
       height="500"
       x="0"
       y="-1.4210855e-14"
       ry="171.93979" />
    <circle
       style="fill:#00ffff;stroke:none;stroke-width:0.233948;stroke-opacity:1"
       id="path1526"
       cx="250"
       cy="250"
       r="50" />
    <path
       style="fill:#ff00ff;stroke:none;stroke-width:0.264583;stroke-opacity:1"
       d="M 0.74611417,501.06365 499.62389,-0.06146628"
       id="path1645" />
    <path
       style="fill:#f4d7d7;stroke:none;stroke-width:0.264583;stroke-opacity:1"
       d="m 244.4165,226.7641 99.42295,22.6282"
       id="path1647" />
    <path
       style="fill:#5fd093;fill-opacity:1;stroke:none;stroke-width:2.70521;stroke-opacity:1"
       d="m 619.49213,1887.8263 c -147.03114,-8.9471 -284.82509,-63.2789 -390.03367,-153.7894 l -9.43353,-8.1156 223.40415,-221.6634 c 122.8723,-121.915 263.12477,-261.1289 311.67218,-309.3643 l 88.26805,-87.7007 17.23498,8.1613 c 26.73731,12.661 44.59242,17.0769 75.39692,18.6471 55.5115,2.8298 103.17909,-15.4908 142.02329,-54.5853 24.1196,-24.2749 36.5013,-43.3393 45.9965,-70.8217 17.0042,-49.2161 13.6176,-104.42389 -9.1426,-149.03752 -3.1592,-6.19257 -5.744,-12.34686 -5.744,-13.67617 0,-3.21727 618.843,-617.29072 622.0852,-617.29072 3.506,0 33.8911,39.46903 54.1474,70.33535 20.5761,31.35345 50.6778,91.95605 63.8255,128.49728 12.681,35.24397 26.4946,89.48907 32.722,128.49728 4.6364,29.04173 4.9666,54.84834 4.9666,388.19703 0,395.71837 0.7546,376.75187 -18.0283,453.12197 -23.1518,94.1342 -70.8835,186.935 -135.7693,263.9652 -84.8,100.6716 -206.1045,175.4317 -337.1973,207.8149 -78.4779,19.3861 -64.3437,18.7552 -431.48032,19.2594 -181.51932,0.2494 -336.7305,0.046 -344.91375,-0.452 z"
       id="path1826"
       transform="scale(0.26458333)" />
    <path
       style="fill:#1e1e2e;fill-opacity:1;stroke:none;stroke-width:2.70521;stroke-opacity:1"
       d="m 603.25727,1886.7585 c -131.42511,-9.2202 -255.762,-58.3561 -361.70781,-142.9408 l -22.20811,-17.7304 231.86156,-229.8584 c 127.52385,-126.4222 267.9489,-265.6898 312.05563,-309.4836 l 80.19404,-79.6251 17.29197,8.17 c 26.20901,12.3832 44.28173,17.0428 72.65209,18.7314 101.22666,6.0249 187.39476,-66.1436 199.98946,-167.49758 4.3844,-35.28299 -1.0037,-68.26099 -16.8437,-103.09122 l -8.3972,-18.46433 132.3734,-131.74131 c 369.0288,-367.26677 487.7988,-484.63727 490.416,-484.63727 1.5795,0 9.4905,8.29521 17.5799,18.43379 57.4753,72.03472 104.0414,170.39344 124.4688,262.90762 14.1968,64.29692 13.8978,54.92368 13.8978,435.53813 0,395.84277 0.7567,377.44387 -18.7024,454.70577 -57.7039,229.1114 -237.8893,409.2794 -467.7281,467.683 -81.412,20.6873 -68.7933,20.0926 -437.39733,20.6162 -180.77538,0.2567 -342.68357,-0.5153 -359.796,-1.7159 z"
       id="path1828"
       transform="scale(0.26458333)" />
    <path
       style="fill:#26e280;fill-opacity:1;stroke:none;stroke-width:2.70521;stroke-opacity:1"
       d="M 142.23075,1643.6725 C 85.596213,1572.6916 43.971949,1488.6151 21.566553,1399.944 9.939791,1353.9302 5.6247456,1323.395 2.4523857,1264.6837 -1.4785411,1191.9335 0.79413752,606.54921 5.1305511,574.85624 44.141027,289.74561 244.61566,71.682939 520.03297,14.780428 584.63918,1.4324857 604.18337,0.87318693 968.46368,1.94763 c 367.99702,1.0854054 351.04242,0.3943995 422.01212,17.199662 91.3616,21.633962 187.6775,69.141745 258.9633,127.733548 l 19.5526,16.07084 -310.7613,308.75011 c -170.9188,169.81256 -312.1439,308.75009 -313.8337,308.75009 -1.6898,0 -8.8142,-2.90758 -15.8321,-6.46133 -43.25717,-21.90459 -101.44477,-24.71676 -149.38756,-7.21982 -55.06836,20.09747 -96.47262,63.29214 -115.54056,120.53678 -6.36424,19.10633 -7.21586,25.91998 -7.26953,58.16192 -0.0549,33.0171 0.6598,38.59626 7.45146,58.16197 4.13174,11.9029 9.87227,25.6733 12.75675,30.601 l 5.24447,8.9594 -208.98472,207.3165 c -114.9416,114.024 -255.39353,253.4631 -312.11541,309.8646 L 157.58882,1662.921 Z"
       id="path2315"
       transform="scale(0.26458333)" />
    <path
       style="fill:#000000;fill-opacity:1;stroke:none;stroke-width:1.44852;stroke-opacity:1"
       d="m 780.1978,1035.8987 c -7.04617,-12.5997 -13.48206,-29.0446 -17.88939,-45.71066 -2.99706,-11.33322 -3.79972,-18.34153 -4.36861,-38.14394 -1.03577,-36.05355 3.20575,-58.3767 16.41793,-86.4076 19.16947,-40.66988 54.7683,-75.58355 94.74674,-92.92314 51.53504,-22.35197 110.4094,-20.94972 159.55633,3.80026 20.3778,10.2621 24.2976,2.8776 -30.87798,58.17046 -26.55216,26.60858 -85.20335,84.85522 -130.33599,129.43697 l -82.05934,81.05775 z"
       id="path3910"
       transform="scale(0.26458333)" />
    <path
       style="fill:#ffffff;fill-opacity:1;stroke:none;stroke-width:1.44852;stroke-opacity:1"
       d="m 927.77834,1132.5563 c -13.85514,-1.5007 -30.72599,-5.3373 -44.52903,-10.1263 -15.85718,-5.5017 -34.78908,-14.7075 -34.10511,-16.5838 0.22768,-0.6246 58.37766,-58.6264 129.22218,-128.89286 l 128.80822,-127.75721 5.045,9.95854 c 7.4915,14.78805 11.5642,25.68619 15.6304,41.82602 4.9747,19.74611 6.2381,52.98921 2.8074,73.87113 -12.6811,77.18668 -71.9835,138.66588 -148.86977,154.33428 -14.28839,2.9118 -42.17548,4.652 -54.00929,3.3702 z"
       id="path3912"
       transform="scale(0.26458333)" />
  </g>
</svg>
